<?xml version="1.0" encoding="utf-8"?>
<svg width="5050" height="1100" xmlns="http://www.w3.org/2000/svg">
  <defs>
    <radialGradient id="a" gradientUnits="userSpaceOnUse" cx="152.286" cy="126.898" r="330" gradientTransform="matrix(.63847 -1.09184 1.0973 .64166 52.727 218.434)">
      <stop offset="0" stop-color="#b66262"/>
      <stop offset="1" stop-color="#a36162"/>
    </radialGradient>
  </defs>
  <g transform="translate(47.41 146.88) scale(1.36364)">
    <circle cx="330" cy="330" r="330" stroke-width="20" fill="url(#a)" stroke="#d89e9e"/>
    <path d="M279.897 336.342c6.494 1.414 12.927 5.17 15.82 11.381 3.354 6.581 1.96 14.64-1.621 20.817-3.447 5.98-10.37 9.643-17.248 9.242-7.805-.374-16.031-4.137-19.794-11.281-4.206-7.772-1.985-17.748 3.482-24.31 4.656-5.464 12.48-7.543 19.361-5.85z" fill="#b46362" stroke="#d89e9e"/>
    <path d="M383.677 71.871c15.967-5.138 34.724.447 45.322 13.434 8.175 9.59 11.758 23.058 8.94 35.393-2.345 11.538-10.457 21.929-21.401 26.457-1.854.817-3.886 1.16-5.667 2.136-16.122 8.89-27.381 26.165-28.509 44.602-.52 6.73.059 13.514 1.4 20.12 1.225 4.558 2.28 10.149-1.408 13.913-4.535 4.38-11.317 4.729-17.277 4.563-7.403-.18-14.89-2.246-20.805-6.83-3.874-3.078-7.947-6.649-9.171-11.655-.679-2.452.133-5.244 2.144-6.843 2.647-2.344 6.487-1.997 9.44-3.768 5.31-2.034 8.174-7.46 9.954-12.53 1.949-6.566 2.759-13.433 2.862-20.265.41-15.49-1.616-30.913-3.818-46.212-.215-2.162-1.931-4.014-1.218-6.268.046-7.323-.27-14.943 2.604-21.86 4.448-11.666 14.63-20.921 26.608-24.387zm34.907 323.856c4.359-3.335 9.547-6.561 15.258-6.168 3.007.147 5.074 2.534 6.68 4.81 8.88 11.734 17.815 24.291 31.022 31.501 7.172 4.157 15.7 6.044 23.949 5.208 12.636-3.036 26.543-.08 36.956 7.655 12.437 9.235 18.989 25.191 17.734 40.504-.553 17.036-14.607 31.509-30.732 35.424-20.412 5.25-44.665-6.252-51.339-26.71-1.09-2.87-1.123-6.011-2.195-8.89-5.55-14.668-12.613-29.024-23.018-40.898-4.906-5.34-10.62-10.362-17.699-12.49-2.825-1.111-5.898-.842-8.815-1.45-4.32-1.469-8.294-5.178-8.14-10.047.268-7.307 4.5-14.176 10.339-18.449zm-134.797 43.219c5.744-3.932 13.214-3.868 19.818-2.739 7.286 1.581 14.575 4.1 20.546 8.686 1.969 1.562 3.938 3.872 3.497 6.573-.346 2.766-3.1 4.062-4.953 5.762.252.073.756.229 1.005.306-3.19.139-4.02 3.893-5.213 6.234-4.99 13.162-5.133 27.447-6.468 41.298-1.745 18.715-2.402 37.772-7.936 55.87-3.616 11.867-12.935 21.858-24.577 26.17-11.455 4.56-24.877 3.712-35.708-2.142-12.199-6.27-20.699-18.887-22.352-32.458-2.378-18.539 9.993-37.807 28.013-42.95 5.92-1.39 11.766-3.064 17.577-4.835 5.53-1.756 10.9-4.821 14.22-9.699 3.22-4.872 4.128-10.834 4.294-16.557.07-10.38-2.017-20.658-4.874-30.59-1.102-3.28.213-7.052 3.111-8.929z" fill="#f9cbcb" stroke="#ffe7e7"/>
    <path d="M224.85 86.986c18.808-5.442 40.51 4.202 49.112 21.793 7.04 13.175 6.052 30.361-2.825 42.425-3.917 9.336-3.885 19.826-2.01 29.634 1.575 7.852 4.483 15.684 9.89 21.732 2.761 2.934 6.339 5.847 10.45 6.166 18.345-5.953 38.096-8.235 57.22-5.342-2.954 1.77-6.796 1.423-9.442 3.767-2.01 1.6-2.823 4.39-2.144 6.843 1.224 5.006 5.298 8.578 9.172 11.656 5.913 4.583 13.401 6.649 20.804 6.83 5.96.165 12.742-.183 17.278-4.564 3.686-3.764 2.632-9.355 1.406-13.913 13.1 5.955 25.022 14.34 35.427 24.257 8.34 8.277 15.714 17.561 21.567 27.763 8.537 14.749 14.094 31.228 16.163 48.15.125.702.15 1.536.823 1.98 8.47 7.008 19.622 10.123 30.48 10.331 10.759-.238 22.176-3.573 29.568-11.775 5.369-4.586 12.55-6.801 19.567-6.329 12.622.817 25.528 8.013 30.574 20.008 3.807 8.736 1.375 19.191-4.506 26.408-6.365 7.62-16.314 12.315-26.282 11.972-7.603-.507-15.06-2.91-21.723-6.551-12.895-6.14-26.984-9.937-41.257-10.745-5.798-.126-11.965-.409-17.286 2.293-.825.286-1.057 1.12-1.177 1.899-2.674 14.3-7.82 28.14-15.177 40.696-1.606-2.276-3.673-4.664-6.68-4.81-5.71-.394-10.899 2.832-15.258 6.167-5.839 4.273-10.07 11.142-10.338 18.45-.154 4.868 3.82 8.577 8.139 10.046-4.976 4.85-10.654 8.893-16.321 12.882-15.105 9.668-32.115 16.33-49.83 19.19-8.764 1.208-17.717 2.09-26.534 1.24a65.054 65.054 0 00-1.005-.307c1.854-1.7 4.607-2.995 4.953-5.762.44-2.701-1.528-5.01-3.497-6.573-5.971-4.586-13.26-7.105-20.545-8.687-6.605-1.128-14.075-1.192-19.819 2.74-2.898 1.877-4.213 5.65-3.111 8.928-9.225-3.477-17.428-9.032-25.824-14.031-.722-.998-1.64-1.824-2.654-2.512-14.368-10.753-25.875-24.932-34.757-40.452-.05.247-.154.737-.21.983-.488-1.72-.839-3.497-1.689-5.087-2.977-5.906-5.427-12.07-7.412-18.375-4.177-1.471-8.672-1.71-13.061-1.627-13.676.41-26.633 5.841-38.22 12.782-4.431 2.619-8.354 5.989-12.785 8.607-8.842 5.401-19.774 7.575-29.92 5.082-15.7-2.86-29.158-15.38-32.985-30.886-4.227-14.963 1.377-32.199 13.593-41.819 13.899-11.725 35.55-12.75 50.536-2.48 3.214 2.132 5.473 5.38 6.93 8.9 9.134 6.78 20.353 10.753 31.678 11.664 5.66.351 11.46-.496 16.59-2.987.712-2.149 1.988-4.212 1.766-6.56-.132-5.678.732-11.305.936-16.964.325-1.405.717-2.794.987-4.207 3.36-19.566 11.472-38.284 23.335-54.198 1.93-2.75 4.415-5.113 5.924-8.152 3.473-3.056 6.65-6.468 10.076-9.597 2.513-1.739 1.234-5.21 2.564-7.671 1.708-11.43-3.038-22.612-8.055-32.623-7.17-13.605-16.738-26.005-28.391-36.07-11.806-10.072-18.342-26.686-14.64-42.016 3.085-14.826 15.314-26.852 29.862-30.592m103.448 155.862c-12.119-2.256-25.152 1.063-34.656 8.928-12.505 9.957-17.977 27.67-13.252 42.945 4.401 15.575 18.42 27.778 34.425 30.111 16.192 2.738 33.667-4.859 42.352-18.872 6.214-9.736 7.906-22.172 4.573-33.225-4.367-15.206-17.844-27.237-33.442-29.887m-48.4 93.493c-6.883-1.693-14.706.386-19.361 5.85-5.468 6.562-7.689 16.539-3.483 24.31 3.763 7.144 11.99 10.907 19.795 11.281 6.876.401 13.8-3.26 17.247-9.242 3.58-6.177 4.975-14.236 1.622-20.816-2.894-6.212-9.327-9.967-15.82-11.383m71.45 24.198c-15.601-4.188-33.79 5.342-38.352 21.032-4.805 15.845 5.497 34.073 21.206 38.825 15.834 5.134 34.977-4.369 39.748-20.478 5.065-16.361-6.083-35.308-22.603-39.38z" stroke="#f4d3d3" fill="#f4d3d3"/>
    <path d="M454.834 184.724c13.852-6.692 31.289-4.985 43.543 4.336 9.655 6.93 16.042 18.13 17.09 29.965 1.828 16.163-7.449 32.631-21.889 39.93-9.829 5.327-21.77 6.105-32.412 2.922-4.12-1.25-8.457-2.882-12.798-1.73-3.241.796-5.65 3.335-7.612 5.886-5.854-10.202-13.229-19.486-21.568-27.762 4.227 1.07 9.201-.937 10.513-5.327 3.015-6.662-.017-14.074 2.404-20.842 3.11-11.85 11.487-22.347 22.73-27.378zm-347.556 23.88c8.394-5.571 19.388-7.269 28.926-3.78 6.385 2.33 12.479 6.38 15.947 12.37 1.131 1.818 1.51 4.03 2.928 5.69 7.394 9.427 17.21 16.708 27.694 22.375 9.847 5.001 20.95 8.701 32.123 7.349 6.696-.528 13.094-3.174 18.538-7.053-1.51 3.039-3.994 5.402-5.924 8.152-11.864 15.914-19.974 34.632-23.336 54.199-.269 1.412-.662 2.8-.986 4.205-.777-2.371-.41-4.795-.08-7.188-.517-11.645-9.725-20.465-18.705-26.724-13.332-8.743-29.24-14.231-45.296-13.853-6.648.563-13.41 1.797-20.011.132-13.97-2.687-24.863-16.013-25.251-30.162-.777-10.246 5.057-20.115 13.433-25.712zm242.956 247.69c17.714-2.86 34.725-9.521 49.83-19.19-4.14 10.315-9.44 20.397-11.108 31.514-.598 4.246-.513 9.394 3.013 12.423 2.9 1.971 6.482 2.559 9.527 4.27 12.942 6.265 22.117 19.558 23.346 33.888 1.18 11.93-3.36 24.3-11.986 32.63-12.595 12.783-33.533 15.655-49.32 7.309-16.254-7.995-26.12-27.292-22.457-45.124 3.047-12.87 9.642-24.45 14.545-36.634 1.694-4.176 3.109-8.902 1.563-13.344-1.13-3.44-4.108-5.74-6.953-7.742zM217.44 390.879c8.883 15.52 20.39 29.699 34.758 40.452 1.013.688 1.932 1.514 2.654 2.511-11.782-1.542-24.16.886-34.043 7.612-12.75 8.47-21.147 22.046-26.776 35.995-3.366 7.064-9.836 12.252-17.01 15.11-9.612 3.994-21.266 2.65-29.66-3.523-7.286-5.303-12.41-13.68-13.355-22.683-1.779-12.415 5.624-25.546 17.17-30.436 5.19-2.315 11.13-2.966 16.672-1.672 1.67.402 3.403.5 5.112.303 9.51-.656 19.013-2.894 27.509-7.312 6.654-3.336 12.272-8.918 15.116-15.849 2.431-6.186 2.658-13.021 1.645-19.525.055-.247.158-.735.209-.983z" stroke="#d89e9e" fill="#e9b2b2"/>
    <path d="M328.298 242.848c15.597 2.65 29.075 14.68 33.443 29.887 3.331 11.053 1.64 23.49-4.574 33.225-8.686 14.013-26.16 21.61-42.351 18.872-16.006-2.333-30.025-14.537-34.426-30.111-4.725-15.275.747-32.988 13.251-42.946 9.504-7.864 22.538-11.183 34.657-8.927z" fill="#aa6263" stroke="#d89e9e"/>
    <path d="M351.347 360.538c16.52 4.072 27.668 23.02 22.604 39.38-4.772 16.11-23.915 25.611-39.749 20.478-15.71-4.753-26.01-22.98-21.206-38.826 4.562-15.69 22.75-25.22 38.35-21.032z" fill="#b46362" stroke="#d89e9e"/>
  </g>
  <path d="M1451.304 1031.717c-117 0-208-37.917-273-113.75s-97.5-180.483-97.5-313.95c0-89.267 14.95-167.267 44.85-234 29.9-66.733 72.367-118.083 127.4-154.05 55.033-35.967 118.95-53.95 191.75-53.95 39.867 0 78.217 5.2 115.05 15.6 36.833 10.4 68.25 22.1 94.25 35.1s39 19.933 39 20.8l-11.7 62.4c0-.867-12.567-7.367-37.7-19.5-25.133-12.133-54.383-23.4-87.75-33.8-33.367-10.4-66.95-15.6-100.75-15.6-84.067 0-149.933 31.85-197.6 95.55-47.667 63.7-71.5 156.65-71.5 278.85 0 120.467 24.267 211.467 72.8 273 48.533 61.533 116.567 92.3 204.1 92.3 45.933 0 86.233-9.533 120.9-28.6s62.183-39.433 82.55-61.1c20.367-21.667 30.55-34.233 30.55-37.7l36.4 41.6c0 4.333-11.267 19.283-33.8 44.85-22.533 25.567-54.817 49.617-96.85 72.15-42.033 22.533-92.517 33.8-151.45 33.8z" style="white-space: pre; fill: rgb(232, 226, 226);"/>
  <path d="M2084.401 1031.717c-90.133 0-158.816-29.467-206.05-88.4-47.233-58.933-70.85-142.133-70.85-249.6 0-107.467 23.617-190.667 70.85-249.6 47.234-58.933 115.917-88.4 206.05-88.4 90.134 0 158.817 29.467 206.05 88.4 47.234 58.933 70.85 142.133 70.85 249.6 0 106.6-24.05 189.583-72.15 248.95-48.1 59.367-116.35 89.05-204.75 89.05zm0-57.2c60.667 0 105.3-23.183 133.9-69.55 28.6-46.367 42.9-116.783 42.9-211.25 0-93.6-14.3-163.8-42.9-210.6-28.6-46.8-73.233-70.2-133.9-70.2-60.666 0-105.3 23.183-133.9 69.55-28.6 46.367-42.9 116.783-42.9 211.25s14.3 164.883 42.9 211.25c28.6 46.367 73.234 69.55 133.9 69.55zm651.298 44.2h-85.8l-222.3-650h111.8l169 547.3 179.4-547.3h71.5l-223.6 650zm384.798-781.3c-15.6 0-28.167-4.767-37.7-14.3-11.267-11.267-16.9-25.133-16.9-41.6 0-16.467 5.633-30.333 16.9-41.6 9.533-9.533 22.1-14.3 37.7-14.3 16.466 0 29.466 4.333 39 13 10.4 11.267 15.6 25.567 15.6 42.9 0 15.6-5.2 29.467-15.6 41.6-12.134 9.533-25.134 14.3-39 14.3zm46.8 781.3h-94.9v-650h94.9v650zm406.898 13c-78.866 0-142.133-28.167-189.8-84.5-47.666-56.333-71.5-134.767-71.5-235.3 0-108.333 23.184-194.783 69.55-259.35 46.367-64.567 111.584-96.85 195.65-96.85 35.534 0 65.434 4.55 89.7 13.65 24.267 9.1 42.9 19.067 55.9 29.9 13 10.833 19.5 17.117 19.5 18.85h1.3v-371.8l93.6-5.2v977.6h-80.6l-10.4-76.7c-9.533 19.067-28.166 38.783-55.9 59.15-27.733 20.367-66.733 30.55-117 30.55zm20.8-63.7c31.2 0 58.067-6.717 80.6-20.15 22.534-13.433 39.65-27.95 51.35-43.55 11.7-15.6 17.55-24.7 17.55-27.3v-399.1c0-1.733-5.85-7.8-17.55-18.2-11.7-10.4-27.733-19.933-48.1-28.6-20.366-8.667-44.416-13-72.15-13-66.733 0-115.7 24.483-146.9 73.45-31.2 48.967-46.8 121.55-46.8 217.75 0 91 15.384 156.867 46.15 197.6 30.767 40.733 76.05 61.1 135.85 61.1z" style="white-space: pre; text-transform: lowercase; fill: rgb(232, 226, 226);"/>
  <path d="M4272.293 1018.717h-93.6v-769.6l-156 87.1-22.1-50.7 193.7-111.8h78v845zm443.298 13c-37.267 0-69.117-4.55-95.55-13.65-26.433-9.1-46.583-19.067-60.45-29.9-13.867-10.833-20.8-17.117-20.8-18.85l24.7-55.9c0 1.733 6.5 7.583 19.5 17.55s30.55 19.283 52.65 27.95c22.1 8.667 47.45 13 76.05 13 60.667 0 109.633-27.95 146.9-83.85 37.267-55.9 57.633-140.183 61.1-252.85-45.067 58.933-107.467 88.4-187.2 88.4-78 0-139.967-24.267-185.9-72.8-45.933-48.533-68.9-112.667-68.9-192.4 0-52.867 10.4-101.833 31.2-146.9 20.8-45.067 51.567-81.25 92.3-108.55 40.733-27.3 89.267-40.95 145.6-40.95 87.533 0 154.05 29.033 199.55 87.1 45.5 58.067 68.25 141.7 68.25 250.9 0 41.6-.867 71.933-2.6 91-3.467 96.2-18.417 177.233-44.85 243.1-26.433 65.867-61.317 115.267-104.65 148.2-43.333 32.933-92.3 49.4-146.9 49.4zm28.6-361.4c46.8 0 84.283-11.917 112.45-35.75s46.15-48.75 53.95-74.75c2.6-23.4 3.9-53.3 3.9-89.7 0-84.067-13.217-146.9-39.65-188.5-26.433-41.6-69.117-62.4-128.05-62.4-56.333 0-98.8 22.533-127.4 67.6-28.6 45.067-42.9 100.967-42.9 167.7 0 63.267 14.083 115.05 42.25 155.35s69.983 60.45 125.45 60.45z" style="white-space: pre; fill: rgb(216, 158, 158);"/>
</svg>