<?xml version="1.0" encoding="utf-8"?>
<svg viewBox="0 0 4130 1000" width="4130px" height="1000px" xmlns="http://www.w3.org/2000/svg">
  <defs>
    <radialGradient id="gradient-2" gradientUnits="userSpaceOnUse" cx="152.286" cy="126.898" r="330" gradientTransform="matrix(0.638467, -1.091841, 1.097297, 0.641658, 52.727184, 218.434189)">
      <stop offset="0" style="stop-color: rgb(182, 98, 98);"/>
      <stop offset="1" style="stop-color: rgb(163, 97, 98);"/>
    </radialGradient>
  </defs>
  <g transform="matrix(1, 0, 0, 1, 732, 321)">
    <circle style="stroke-width: 20px; fill: url(#gradient-2); stroke: rgb(216, 158, 158);" cx="330" cy="330" r="330"/>
    <g>
      <animateTransform attributeName="transform" attributeType="XML" type="rotate" from="0 330 330" to="360 330 330" dur="6s" repeatCount="indefinite"/>
      <path opacity="1.00" d="M 273.682 336.176 C 280.304 335.607 287.56 337.292 292.161 342.37 C 297.31 347.665 298.361 355.776 296.767 362.735 C 295.243 369.468 289.712 375.014 283.024 376.664 C 275.457 378.615 266.486 377.453 260.779 371.741 C 254.463 365.561 253.634 355.374 256.917 347.489 C 259.748 340.892 266.607 336.593 273.682 336.176 Z" style="fill: rgb(180, 99, 98); stroke: rgb(216, 158, 158);" transform="matrix(0.955278, 0.29571, -0.29571, 0.955278, 117.865169, -65.7302)"/>
      <path opacity="1.00" d="M 359.962 75.563 C 373.695 65.933 393.265 65.722 407.229 74.994 C 417.874 81.737 425.28 93.544 426.236 106.16 C 427.407 117.876 422.731 130.201 413.615 137.763 C 412.086 139.091 410.246 140.021 408.833 141.479 C 396.061 154.739 390.414 174.571 394.789 192.517 C 396.282 199.099 398.841 205.409 402.075 211.323 C 404.594 215.315 407.254 220.344 404.845 225.03 C 401.808 230.556 395.432 232.894 389.69 234.498 C 382.565 236.515 374.801 236.756 367.796 234.126 C 363.185 232.331 358.238 230.124 355.588 225.704 C 354.215 223.562 354.165 220.655 355.613 218.533 C 357.448 215.511 361.219 214.707 363.517 212.142 C 367.988 208.628 369.119 202.599 369.32 197.228 C 369.24 190.38 367.983 183.581 366.062 177.024 C 361.873 162.105 355.376 147.971 348.749 134.007 C 347.904 132.006 345.717 130.744 345.732 128.38 C 343.61 121.371 341.056 114.185 341.755 106.728 C 342.554 94.268 349.544 82.416 359.962 75.563 Z" style="fill: rgb(249, 203, 203); stroke: rgb(255, 231, 231);" transform="matrix(0.955278, 0.29571, -0.29571, 0.955278, 62.158205, -106.756931)"/>
      <path opacity="1.00" d="M 403.567 415.601 C 406.745 411.126 410.747 406.51 416.319 405.197 C 419.235 404.448 421.915 406.117 424.123 407.817 C 436.075 416.4 448.324 425.753 463.072 428.735 C 471.153 430.585 479.857 429.866 487.49 426.628 C 498.663 419.991 512.823 418.703 525.057 423.013 C 539.669 428.157 550.646 441.462 553.975 456.461 C 558.485 472.899 549.339 490.88 535.093 499.388 C 517.147 510.44 490.577 506.624 478.152 489.055 C 476.262 486.636 475.301 483.644 473.426 481.211 C 463.786 468.841 452.794 457.215 439.344 448.949 C 433.078 445.298 426.134 442.191 418.743 442.251 C 415.715 442.025 412.859 443.191 409.893 443.473 C 405.332 443.347 400.439 440.979 399.147 436.282 C 397.241 429.223 399.253 421.409 403.567 415.601 Z" style="fill: rgb(249, 203, 203); stroke: rgb(255, 231, 231);" transform="matrix(0.955278, 0.29571, -0.29571, 0.955278, 155.962542, -120.626165)"/>
      <path opacity="1.00" d="M 262.012 439.606 C 266.336 434.151 273.491 432.004 280.134 431.129 C 287.561 430.485 295.269 430.736 302.329 433.351 C 304.672 434.261 307.236 435.885 307.614 438.596 C 308.101 441.341 305.854 443.393 304.586 445.565 C 304.848 445.56 305.376 445.56 305.637 445.56 C 302.63 446.636 302.947 450.468 302.5 453.057 C 301.625 467.106 305.713 480.794 308.534 494.42 C 312.401 512.814 317.409 531.213 317.474 550.139 C 317.529 562.544 311.581 574.844 301.735 582.406 C 292.141 590.15 279.068 593.308 266.99 590.919 C 253.483 588.536 241.632 578.997 236.04 566.522 C 228.286 549.516 234.406 527.451 250.099 517.209 C 255.344 514.131 260.433 510.803 265.461 507.393 C 270.223 504.08 274.447 499.564 276.176 493.923 C 277.811 488.316 276.916 482.352 275.382 476.836 C 272.38 466.9 267.347 457.698 261.68 449.055 C 259.658 446.249 259.799 442.256 262.012 439.606 Z" style="fill: rgb(249, 203, 203); stroke: rgb(255, 231, 231);" transform="matrix(0.955278, 0.29571, -0.29571, 0.955278, 163.488587, -58.479506)"/>
      <path opacity="1.00" d="M 169.623 130.46 C 185.98 119.699 209.563 122.495 222.983 136.755 C 233.603 147.259 237.742 163.969 232.829 178.118 C 231.848 188.195 234.981 198.206 239.672 207.021 C 243.499 214.056 248.593 220.678 255.547 224.857 C 259.052 226.843 263.331 228.568 267.353 227.657 C 283.117 216.545 301.31 208.525 320.433 205.633 C 318.135 208.198 314.363 209.002 312.528 212.024 C 311.08 214.146 311.13 217.053 312.503 219.195 C 315.153 223.615 320.101 225.822 324.712 227.617 C 331.716 230.247 339.48 230.006 346.605 227.989 C 352.347 226.385 358.723 224.047 361.761 218.521 C 364.169 213.835 361.509 208.806 358.99 204.814 C 373.265 206.629 387.134 211.114 400.006 217.51 C 410.42 222.951 420.21 229.639 428.818 237.654 C 441.334 249.219 451.516 263.318 458.496 278.871 C 458.823 279.505 459.094 280.294 459.868 280.52 C 470.031 284.709 481.606 284.387 492.04 281.375 C 502.247 277.966 512.168 271.404 516.804 261.383 C 520.576 255.414 526.781 251.175 533.624 249.551 C 545.923 246.599 560.38 249.656 568.747 259.623 C 574.967 266.843 575.736 277.549 572.252 286.182 C 568.425 295.344 560.309 302.771 550.685 305.391 C 543.273 307.155 535.439 307.065 527.997 305.556 C 513.863 303.505 499.281 304.043 485.407 307.492 C 479.831 309.086 473.857 310.64 469.573 314.794 C 468.869 315.311 468.894 316.176 469.01 316.956 C 470.684 331.407 469.86 346.15 466.546 360.32 C 464.339 358.621 461.658 356.951 458.742 357.7 C 453.171 359.013 449.168 363.629 445.99 368.104 C 441.676 373.912 439.665 381.726 441.57 388.786 C 442.863 393.482 447.755 395.85 452.316 395.976 C 448.997 402.08 444.768 407.622 440.534 413.108 C 428.964 426.81 414.684 438.204 398.608 446.174 C 390.593 449.92 382.301 453.41 373.627 455.205 C 373.366 455.205 372.838 455.205 372.576 455.21 C 373.844 453.038 376.091 450.986 375.604 448.241 C 375.226 445.53 372.662 443.906 370.319 442.996 C 363.259 440.381 355.551 440.13 348.124 440.773 C 341.481 441.648 334.326 443.796 330.002 449.251 C 327.789 451.901 327.648 455.894 329.67 458.7 C 319.829 458.106 310.351 455.225 300.852 452.932 C 299.867 452.193 298.745 451.675 297.574 451.318 C 280.669 445.294 265.483 435.152 252.409 422.953 C 252.434 423.204 252.48 423.702 252.5 423.954 C 251.524 422.455 250.664 420.861 249.382 419.594 C 244.791 414.832 240.628 409.668 236.867 404.233 C 232.442 404.062 228.077 405.163 223.909 406.541 C 210.966 410.976 200.195 419.996 191.179 430.053 C 187.72 433.865 184.969 438.244 181.51 442.056 C 174.661 449.83 164.861 455.139 154.432 455.758 C 138.588 457.669 122.029 449.689 113.788 436.007 C 105.325 422.963 105.582 404.841 114.407 392.039 C 124.217 376.728 144.597 369.346 161.949 374.726 C 165.65 375.812 168.768 378.246 171.202 381.178 C 181.932 384.954 193.824 385.432 204.912 382.953 C 210.423 381.615 215.712 379.091 219.876 375.194 C 219.921 372.931 220.53 370.583 219.624 368.406 C 217.819 363.02 216.98 357.389 215.501 351.923 C 215.396 350.485 215.36 349.042 215.2 347.613 C 212.625 327.928 214.838 307.648 221.465 288.938 C 222.496 285.74 224.17 282.748 224.713 279.399 C 227.127 275.452 229.153 271.253 231.501 267.251 C 233.387 264.847 231.139 261.91 231.682 259.165 C 229.933 247.741 222.093 238.463 214.34 230.383 C 203.468 219.507 190.661 210.491 176.552 204.321 C 162.296 198.191 151.139 184.253 150.143 168.514 C 148.705 153.439 156.831 138.334 169.623 130.46 M 314.534 248.761 C 302.29 250.189 290.821 257.214 284.068 267.537 C 275.067 280.747 275.077 299.286 284.108 312.48 C 292.918 326.057 309.918 333.569 325.898 331.065 C 342.175 328.893 356.622 316.468 360.775 300.513 C 363.832 289.375 361.771 276.995 355.319 267.422 C 346.65 254.187 330.218 246.68 314.534 248.761 M 295.945 352.385 C 288.87 352.803 282.011 357.102 279.18 363.699 C 275.897 371.584 276.726 381.771 283.042 387.951 C 288.749 393.663 297.72 394.825 305.287 392.874 C 311.975 391.224 317.506 385.678 319.03 378.945 C 320.624 371.986 319.573 363.875 314.424 358.58 C 309.823 353.502 302.567 351.817 295.945 352.385 M 371.355 354.372 C 355.214 354.985 340.657 369.467 340.938 385.804 C 341.034 402.362 356.265 416.728 372.677 416.622 C 389.321 416.844 404.798 402.106 404.592 385.306 C 404.592 368.179 388.34 353.376 371.355 354.372 Z" style="stroke: rgb(244, 211, 211); fill: rgb(244, 211, 211);" transform="matrix(0.955278, 0.29571, -0.29571, 0.955278, 101.39142, -87.798346)"/>
      <path opacity="1.00" d="M 443.2 190.976 C 454.453 180.487 471.615 176.962 486.077 182.242 C 497.35 186.008 506.763 194.818 511.264 205.814 C 517.79 220.713 513.798 239.188 502.162 250.431 C 494.348 258.426 483.17 262.7 472.063 262.806 C 467.758 262.831 463.132 262.554 459.326 264.938 C 456.465 266.657 454.916 269.795 453.795 272.812 C 445.186 264.797 435.396 258.109 424.982 252.669 C 429.337 252.442 433.495 249.053 433.45 244.472 C 434.36 237.216 429.272 231.032 429.583 223.851 C 429.05 211.612 433.948 199.107 443.2 190.976 Z" style="stroke: rgb(216, 158, 158); fill: rgb(233, 178, 178);" transform="matrix(0.955278, 0.29571, -0.29571, 0.955278, 87.928674, -128.769977)"/>
      <path opacity="1.00" d="M 95.872 225.704 C 102.243 217.9 112.244 213.027 122.387 213.54 C 129.175 213.877 136.194 215.944 141.278 220.64 C 142.897 222.043 143.913 224.044 145.758 225.211 C 155.609 232.029 167.139 236.082 178.83 238.395 C 189.716 240.261 201.417 240.512 211.69 235.916 C 217.93 233.432 223.26 229.012 227.313 223.697 C 226.77 227.046 225.095 230.038 224.065 233.236 C 217.437 251.947 215.225 272.226 217.799 291.912 C 217.96 293.34 217.995 294.783 218.101 296.221 C 216.658 294.185 216.291 291.761 215.899 289.378 C 211.961 278.406 200.557 272.704 190.128 269.38 C 174.807 264.97 157.987 264.432 142.761 269.541 C 136.577 272.045 130.482 275.223 123.684 275.585 C 109.544 277.149 95.198 267.64 90.643 254.239 C 86.871 244.681 89.526 233.528 95.872 225.704 Z" style="stroke: rgb(216, 158, 158); fill: rgb(233, 178, 178);" transform="matrix(0.955278, 0.29571, -0.29571, 0.955278, 82.436271, -35.356574)"/>
      <path opacity="1.00" d="M 339 468.651 C 355.076 460.681 369.356 449.287 380.927 435.584 C 380.021 446.662 377.94 457.86 379.634 468.973 C 380.318 473.206 381.922 478.099 386.186 479.95 C 389.54 480.975 393.135 480.477 396.55 481.212 C 410.765 483.369 423.461 493.355 428.872 506.68 C 433.528 517.727 432.849 530.887 427.072 541.396 C 418.82 557.331 399.667 566.266 382.118 562.962 C 364.227 560.131 349.097 544.614 347.322 526.497 C 346.427 513.302 349.303 500.289 350.384 487.2 C 350.767 482.71 350.721 477.777 347.931 473.991 C 345.834 471.039 342.309 469.722 339 468.651 Z" style="stroke: rgb(216, 158, 158); fill: rgb(233, 178, 178);" transform="matrix(0.955278, 0.29571, -0.29571, 0.955278, 164.979995, -91.6434)"/>
      <path opacity="1.00" d="M 200.534 386.577 C 213.608 398.776 228.794 408.918 245.699 414.942 C 246.87 415.299 247.992 415.817 248.977 416.556 C 237.266 418.567 226.159 424.546 218.707 433.894 C 209.032 445.756 205.025 461.208 203.773 476.197 C 202.646 483.941 198 490.81 191.991 495.662 C 183.991 502.319 172.461 504.482 162.616 501.067 C 154.088 498.156 146.716 491.669 143.151 483.348 C 137.781 472.014 140.969 457.281 150.553 449.195 C 154.827 445.449 160.308 443.071 165.985 442.668 C 167.699 442.558 169.384 442.14 170.958 441.446 C 179.848 438.007 188.265 433.059 195.074 426.326 C 200.444 421.172 204.16 414.178 204.828 406.716 C 205.321 400.088 203.516 393.491 200.625 387.578 C 200.605 387.326 200.559 386.829 200.534 386.577 Z" style="stroke: rgb(216, 158, 158); fill: rgb(233, 178, 178);" transform="matrix(0.955278, 0.29571, -0.29571, 0.955278, 140.189589, -37.709413)"/>
      <path opacity="1.00" d="M 315.876 242.546 C 331.559 240.465 347.992 247.972 356.661 261.206 C 363.112 270.78 365.174 283.16 362.117 294.298 C 357.963 310.253 343.517 322.678 327.24 324.85 C 311.26 327.354 294.259 319.842 285.45 306.265 C 276.419 293.071 276.409 274.532 285.409 261.322 C 292.162 250.999 303.632 243.974 315.876 242.546 Z" style="fill: rgb(170, 98, 99); stroke: rgb(216, 158, 158);" transform="matrix(0.955278, 0.29571, -0.29571, 0.955278, 98.271835, -82.258063)"/>
      <path opacity="1.00" d="M 342.086 359.564 C 359.072 358.568 375.324 373.372 375.324 390.498 C 375.53 407.298 360.053 422.036 343.409 421.815 C 326.996 421.92 311.766 407.554 311.67 390.996 C 311.388 374.659 325.945 360.177 342.086 359.564 Z" style="fill: rgb(180, 99, 98); stroke: rgb(216, 158, 158);" transform="matrix(0.955278, 0.29571, -0.29571, 0.955278, 130.886042, -84.103707)"/>
    </g>
  </g>
  <g transform="matrix(1, 0, 0, 1, 0.300984, -0.340243)">
    <path d="M 384.895 993.454 C 267.895 993.454 176.895 955.537 111.895 879.704 C 46.895 803.871 14.395 699.221 14.395 565.754 C 14.395 476.487 29.345 398.487 59.245 331.754 C 89.145 265.021 131.612 213.671 186.645 177.704 C 241.678 141.737 305.595 123.754 378.395 123.754 C 418.262 123.754 456.612 128.954 493.445 139.354 C 530.278 149.754 561.695 161.454 587.695 174.454 C 613.695 187.454 626.695 194.387 626.695 195.254 L 614.995 257.654 C 614.995 256.787 602.428 250.287 577.295 238.154 C 552.162 226.021 522.912 214.754 489.545 204.354 C 456.178 193.954 422.595 188.754 388.795 188.754 C 304.728 188.754 238.862 220.604 191.195 284.304 C 143.528 348.004 119.695 440.954 119.695 563.154 C 119.695 683.621 143.962 774.621 192.495 836.154 C 241.028 897.687 309.062 928.454 396.595 928.454 C 442.528 928.454 482.828 918.921 517.495 899.854 C 552.162 880.787 579.678 860.421 600.045 838.754 C 620.412 817.087 630.595 804.521 630.595 801.054 L 666.995 842.654 C 666.995 846.987 655.728 861.937 633.195 887.504 C 610.662 913.071 578.378 937.121 536.345 959.654 C 494.312 982.187 443.828 993.454 384.895 993.454 Z" transform="matrix(1, 0, 0, 1, 0, 0)" style="white-space: pre; fill: rgb(232, 226, 226);"/>
    <path d="M 1723.795 980.454 L 1637.995 980.454 L 1415.695 330.454 L 1527.495 330.454 L 1696.495 877.754 L 1875.895 330.454 L 1947.395 330.454 L 1723.795 980.454 ZM 2108.595 199.154 C 2092.995 199.154 2080.428 194.387 2070.895 184.854 C 2059.628 173.587 2053.995 159.721 2053.995 143.254 C 2053.995 126.787 2059.628 112.921 2070.895 101.654 C 2080.428 92.121 2092.995 87.354 2108.595 87.354 C 2125.062 87.354 2138.062 91.687 2147.595 100.354 C 2157.995 111.621 2163.195 125.921 2163.195 143.254 C 2163.195 158.854 2157.995 172.721 2147.595 184.854 C 2135.462 194.387 2122.462 199.154 2108.595 199.154 Z M 2155.395 980.454 L 2060.495 980.454 L 2060.495 330.454 L 2155.395 330.454 L 2155.395 980.454 ZM 2562.295 993.454 C 2483.428 993.454 2420.162 965.287 2372.495 908.954 C 2324.828 852.621 2300.995 774.187 2300.995 673.654 C 2300.995 565.321 2324.178 478.871 2370.545 414.304 C 2416.912 349.737 2482.128 317.454 2566.195 317.454 C 2601.728 317.454 2631.628 322.004 2655.895 331.104 C 2680.162 340.204 2698.795 350.171 2711.795 361.004 C 2724.795 371.837 2731.295 378.121 2731.295 379.854 L 2732.595 379.854 L 2732.595 8.054 L 2826.195 2.854 L 2826.195 980.454 L 2745.595 980.454 L 2735.195 903.754 C 2725.662 922.821 2707.028 942.537 2679.295 962.904 C 2651.562 983.271 2612.562 993.454 2562.295 993.454 Z M 2583.095 929.754 C 2614.295 929.754 2641.162 923.037 2663.695 909.604 C 2686.228 896.171 2703.345 881.654 2715.045 866.054 C 2726.745 850.454 2732.595 841.354 2732.595 838.754 L 2732.595 439.654 C 2732.595 437.921 2726.745 431.854 2715.045 421.454 C 2703.345 411.054 2687.312 401.521 2666.945 392.854 C 2646.578 384.187 2622.528 379.854 2594.795 379.854 C 2528.062 379.854 2479.095 404.337 2447.895 453.304 C 2416.695 502.271 2401.095 574.854 2401.095 671.054 C 2401.095 762.054 2416.478 827.921 2447.245 868.654 C 2478.012 909.387 2523.295 929.754 2583.095 929.754 Z" transform="matrix(1, 0, 0, 1, 0, 0)" style="white-space: pre; fill: rgb(232, 226, 226);"/>
    <path d="M 3067.995 199.154 C 3052.395 199.154 3039.828 194.387 3030.295 184.854 C 3019.028 173.587 3013.395 159.721 3013.395 143.254 C 3013.395 126.787 3019.028 112.921 3030.295 101.654 C 3039.828 92.121 3052.395 87.354 3067.995 87.354 C 3084.461 87.354 3097.461 91.687 3106.995 100.354 C 3117.395 111.621 3122.595 125.921 3122.595 143.254 C 3122.595 158.854 3117.395 172.721 3106.995 184.854 C 3094.861 194.387 3081.861 199.154 3067.995 199.154 Z M 3114.795 980.454 L 3019.895 980.454 L 3019.895 330.454 L 3114.795 330.454 L 3114.795 980.454 ZM 3470.995 993.454 C 3425.062 993.454 3386.278 986.304 3354.645 972.004 C 3323.012 957.704 3299.178 942.321 3283.145 925.854 C 3267.112 909.387 3259.095 899.854 3259.095 897.254 L 3291.595 851.754 C 3291.595 853.487 3298.528 861.721 3312.395 876.454 C 3326.262 891.187 3345.328 904.837 3369.595 917.404 C 3393.862 929.971 3422.462 936.254 3455.395 936.254 C 3503.928 936.254 3540.545 924.121 3565.245 899.854 C 3589.945 875.587 3602.295 846.121 3602.295 811.454 C 3602.295 786.321 3596.012 765.521 3583.445 749.054 C 3570.878 732.587 3555.278 719.804 3536.645 710.704 C 3518.012 701.604 3492.228 691.421 3459.295 680.154 C 3421.162 666.287 3390.828 653.504 3368.295 641.804 C 3345.762 630.104 3326.478 612.554 3310.445 589.154 C 3294.412 565.754 3286.395 535.421 3286.395 498.154 C 3286.395 442.687 3306.545 398.704 3346.845 366.204 C 3387.145 333.704 3438.928 317.454 3502.195 317.454 C 3529.928 317.454 3556.578 321.137 3582.145 328.504 C 3607.712 335.871 3628.295 343.671 3643.895 351.904 C 3659.495 360.137 3669.462 365.554 3673.795 368.154 L 3658.195 424.054 C 3654.728 421.454 3646.062 416.037 3632.195 407.804 C 3618.328 399.571 3600.345 391.554 3578.245 383.754 C 3556.145 375.954 3533.395 372.054 3509.995 372.054 C 3470.128 372.054 3437.845 382.021 3413.145 401.954 C 3388.445 421.887 3376.095 447.021 3376.095 477.354 C 3376.095 502.487 3382.595 523.504 3395.595 540.404 C 3408.595 557.304 3424.845 570.521 3444.345 580.054 C 3463.845 589.587 3490.062 600.421 3522.995 612.554 C 3561.128 625.554 3592.112 638.337 3615.945 650.904 C 3639.778 663.471 3659.928 681.454 3676.395 704.854 C 3692.862 728.254 3701.095 758.587 3701.095 795.854 C 3701.095 852.187 3681.595 899.204 3642.595 936.904 C 3603.595 974.604 3546.395 993.454 3470.995 993.454 ZM 4000.095 993.454 C 3953.295 993.454 3918.628 978.937 3896.095 949.904 C 3873.561 920.871 3862.295 872.987 3862.295 806.254 L 3862.295 394.154 L 3794.695 394.154 L 3794.695 339.554 L 3862.295 331.754 L 3897.395 125.054 L 3957.195 125.054 L 3957.195 330.454 L 4123.595 330.454 L 4123.595 394.154 L 3957.195 394.154 L 3957.195 782.854 C 3957.195 839.187 3962.611 877.971 3973.445 899.204 C 3984.278 920.437 4003.128 931.054 4029.995 931.054 C 4051.661 931.054 4071.161 928.887 4088.495 924.554 C 4105.828 920.221 4114.495 917.621 4114.495 916.754 L 4120.995 968.754 C 4119.261 970.487 4113.845 973.304 4104.745 977.204 C 4095.645 981.104 4082.211 984.787 4064.445 988.254 C 4046.678 991.721 4025.228 993.454 4000.095 993.454 Z" transform="matrix(1, 0, 0, 1, 0, 0)" style="white-space: pre; fill: rgb(221, 169, 169);"/>
  </g>
</svg>
